<svg width="28" height="29" viewBox="0 0 28 29" fill="none" xmlns="http://www.w3.org/2000/svg">
<path d="M9.09992 2.41675H18.8999C22.6333 2.41675 25.6666 5.55841 25.6666 9.42508V19.5751C25.6666 21.4338 24.9537 23.2164 23.6847 24.5307C22.4157 25.845 20.6946 26.5834 18.8999 26.5834H9.09992C5.36659 26.5834 2.33325 23.4417 2.33325 19.5751V9.42508C2.33325 7.56636 3.04617 5.78376 4.31516 4.46944C5.58416 3.15512 7.30529 2.41675 9.09992 2.41675ZM8.86659 4.83341C7.75268 4.83341 6.68439 5.29172 5.89674 6.1075C5.10908 6.92328 4.66659 8.02972 4.66659 9.18341V19.8167C4.66659 22.2213 6.54492 24.1667 8.86659 24.1667H19.1333C20.2472 24.1667 21.3155 23.7084 22.1031 22.8927C22.8908 22.0769 23.3333 20.9704 23.3333 19.8167V9.18341C23.3333 6.77883 21.4549 4.83341 19.1333 4.83341H8.86659ZM20.1249 6.64591C20.5117 6.64591 20.8826 6.80505 21.1561 7.0883C21.4296 7.37156 21.5833 7.75574 21.5833 8.15633C21.5833 8.55692 21.4296 8.9411 21.1561 9.22436C20.8826 9.50762 20.5117 9.66675 20.1249 9.66675C19.7381 9.66675 19.3672 9.50762 19.0937 9.22436C18.8202 8.9411 18.6666 8.55692 18.6666 8.15633C18.6666 7.75574 18.8202 7.37156 19.0937 7.0883C19.3672 6.80505 19.7381 6.64591 20.1249 6.64591ZM13.9999 8.45841C15.547 8.45841 17.0307 9.09494 18.1247 10.228C19.2187 11.361 19.8333 12.8977 19.8333 14.5001C19.8333 16.1024 19.2187 17.6392 18.1247 18.7722C17.0307 19.9052 15.547 20.5417 13.9999 20.5417C12.4528 20.5417 10.9691 19.9052 9.87513 18.7722C8.78117 17.6392 8.16659 16.1024 8.16659 14.5001C8.16659 12.8977 8.78117 11.361 9.87513 10.228C10.9691 9.09494 12.4528 8.45841 13.9999 8.45841ZM13.9999 10.8751C13.0717 10.8751 12.1814 11.257 11.525 11.9368C10.8687 12.6166 10.4999 13.5387 10.4999 14.5001C10.4999 15.4615 10.8687 16.3835 11.525 17.0633C12.1814 17.7432 13.0717 18.1251 13.9999 18.1251C14.9282 18.1251 15.8184 17.7432 16.4748 17.0633C17.1312 16.3835 17.4999 15.4615 17.4999 14.5001C17.4999 13.5387 17.1312 12.6166 16.4748 11.9368C15.8184 11.257 14.9282 10.8751 13.9999 10.8751Z" fill="white"/>
</svg>
