<svg width="29" height="29" viewBox="0 0 29 29" fill="none" xmlns="http://www.w3.org/2000/svg">
<path d="M27.1392 7.24992C26.2088 7.67284 25.2058 7.95075 24.1667 8.08367C25.23 7.44325 26.0517 6.42825 26.4383 5.20784C25.4354 5.812 24.3238 6.23492 23.1517 6.47659C22.1971 5.43742 20.8558 4.83325 19.3333 4.83325C16.4938 4.83325 14.1738 7.15325 14.1738 10.017C14.1738 10.4278 14.2221 10.8266 14.3067 11.2012C10.005 10.9837 6.17459 8.91742 3.62501 5.78784C3.17792 6.54909 2.92417 7.44325 2.92417 8.38575C2.92417 10.1862 3.83042 11.7812 5.23209 12.6874C4.37417 12.6874 3.57667 12.4458 2.87584 12.0833V12.1195C2.87584 14.6328 4.66417 16.7353 7.03251 17.2066C6.27214 17.4147 5.47387 17.4436 4.70042 17.2912C5.02861 18.3212 5.67136 19.2226 6.53832 19.8685C7.40527 20.5143 8.45284 20.8723 9.53376 20.892C7.70148 22.3425 5.43025 23.1266 3.09334 23.1153C2.68251 23.1153 2.27167 23.0912 1.86084 23.0428C4.15667 24.517 6.88751 25.3749 9.81167 25.3749C19.3333 25.3749 24.5654 17.4724 24.5654 10.6212C24.5654 10.3916 24.5654 10.1741 24.5533 9.9445C25.5683 9.2195 26.4383 8.30117 27.1392 7.24992Z" fill="white"/>
</svg>
